<?xml version="1.0" encoding="UTF-8"?>
<svg width="32" height="32" version="1.1" viewBox="0 0 8.4667 8.4667" xmlns="http://www.w3.org/2000/svg">
 <path d="m0.92297 0v8.4646h6.6212v-6.2068h-2.2578v-2.2578zm4.9277 0.4004v1.2931h1.2913zm-3.3466 2.8268h1.4242c0.42037 0 1.1229 0.056424 1.6625 0.57718 0.48939 0.47057 0.58362 1.0732 0.58362 1.5249 0 0.55213-0.13775 1.041-0.54557 1.4488-0.33253 0.33253-0.89102 0.63397-1.6063 0.63397h-1.5185zm1.0853 0.92197v2.3404h0.21952c0.26352 0 0.63378-0.024819 0.91612-0.30089 0.13803-0.13176 0.3202-0.39504 0.3202-0.85934 0-0.389-0.11959-0.72162-0.32664-0.91612-0.25724-0.23842-0.59599-0.26401-0.86578-0.26401z" style="fill-rule:evenodd;fill:#e6c927;paint-order:stroke markers fill;stop-color:#000000"/>
</svg>
